<svg width="203" height="217" viewBox="0 0 203 217" fill="none" xmlns="http://www.w3.org/2000/svg">
<path d="M49.4445 80.1822C83.9271 80.1822 118.41 80.1822 153.937 80.1822C153.44 84.163 153.44 84.163 152.963 85.5023C152.859 85.8053 152.754 86.1083 152.646 86.4206C152.533 86.7362 152.42 87.0519 152.304 87.3771C151.123 90.7866 150.063 94.2195 149.069 97.6883C148.966 98.0428 148.862 98.3974 148.755 98.7628C148.621 99.2327 148.621 99.2327 148.483 99.7122C148.181 100.549 148.181 100.549 147.296 101.878C145.945 102.037 145.945 102.037 144.187 102.028C143.708 102.029 143.708 102.029 143.219 102.029C142.16 102.028 141.101 102.018 140.042 102.007C139.309 102.005 138.575 102.003 137.842 102.002C135.91 101.997 133.978 101.984 132.046 101.969C130.076 101.955 128.105 101.949 126.135 101.943C122.267 101.928 118.399 101.906 114.531 101.878C114.537 102.298 114.542 102.718 114.548 103.151C114.62 108.649 114.688 114.146 114.752 119.644C114.758 120.09 114.763 120.536 114.768 120.995C114.935 135.239 115.014 149.481 115.001 163.726C115.001 164.147 115.001 164.568 115 165.002C114.995 170.084 114.985 175.165 114.974 180.247C106.499 180.247 98.0247 180.247 89.2934 180.247C89.2934 154.531 89.2934 128.816 89.2934 102.32C78.4811 102.32 67.6688 102.32 56.5288 102.32C55.6521 99.2521 54.7754 96.1837 53.8722 93.0224C52.7273 89.4786 51.5313 85.9647 50.2401 82.4721C49.9618 81.7135 49.7001 80.9488 49.4445 80.1822Z" fill="black"/>
<path d="M129.996 0.967688C129.77 2.86855 129.473 4.51111 128.701 6.26358C128.53 6.65511 128.36 7.04665 128.184 7.45005C128.006 7.84958 127.828 8.2491 127.644 8.66074C127.471 9.05684 127.297 9.45294 127.119 9.86104C126.606 11.031 126.088 12.1983 125.568 13.3651C125.395 13.7551 125.222 14.1451 125.044 14.5468C124.629 15.4814 124.213 16.4158 123.797 17.35C123.424 17.3518 123.05 17.3536 122.665 17.3555C114.534 17.4245 106.906 17.9014 99.0025 20.0066C98.3607 20.176 98.3607 20.176 97.706 20.3488C86.3985 23.3756 75.518 28.0542 65.7951 34.6179C65.4706 34.8365 65.1462 35.0552 64.8119 35.2805C59.4127 38.9502 54.4067 42.9373 49.6048 47.3647C48.7829 48.1113 47.9582 48.8182 47.0883 49.5058C45.7812 50.6346 44.6963 51.8408 43.5807 53.1552C43.0631 53.7591 42.5336 54.353 41.9895 54.9332C24.2089 73.9838 17.5267 98.954 18.3725 124.416C18.5486 128.068 19.2439 131.602 20.1903 135.126C20.2708 135.433 20.3514 135.741 20.4343 136.058C20.996 138.145 21.6752 140.177 22.4041 142.21C22.5297 142.568 22.6552 142.925 22.7846 143.294C24.635 148.526 26.7842 153.446 29.5097 158.281C29.8633 158.914 30.201 159.555 30.5347 160.199C35.5426 169.819 45.352 180.692 55.1687 185.601C55.1687 185.893 55.1687 186.185 55.1687 186.486C55.546 186.598 55.9233 186.709 56.312 186.824C57.9394 187.413 59.3005 188.174 60.7863 189.06C65.9202 192.049 71.2112 194.014 76.8642 195.784C77.1543 195.875 77.4443 195.966 77.7431 196.06C80.9191 197.043 84.0531 197.795 87.3453 198.266C88.3761 198.441 88.3761 198.441 89.2617 198.884C93.1908 199.496 97.1662 199.434 101.133 199.437C101.5 199.438 101.867 199.438 102.244 199.438C107.767 199.431 113.076 199.203 118.484 197.998C118.839 197.925 119.193 197.851 119.558 197.775C133.11 194.926 146.57 188.449 156.815 179.091C157.656 178.327 158.521 177.593 159.385 176.856C159.922 176.379 160.457 175.899 160.99 175.417C161.253 175.183 161.516 174.949 161.787 174.708C170.492 166.526 176.401 155.502 180.471 144.424C180.627 144.014 180.782 143.605 180.942 143.184C181.079 142.817 181.216 142.45 181.357 142.071C181.494 141.708 181.631 141.344 181.772 140.97C183.027 137.189 183.849 133.463 184.318 129.508C184.373 129.042 184.429 128.575 184.486 128.095C186.397 111.099 181.796 93.0199 171.588 79.1711C171.158 78.6332 170.725 78.0982 170.288 77.5661C170.031 77.2339 169.774 76.9017 169.509 76.5595C160.32 64.766 148.9 56.585 135.309 50.5574C134.926 50.381 134.543 50.2047 134.149 50.023C116.92 42.5285 95.5952 42.8721 78.2183 49.4546C74.8522 50.7819 71.6408 52.3963 68.4517 54.0995C67.9871 54.345 67.5225 54.5904 67.0438 54.8432C64.1507 56.4471 61.5836 58.3291 59.0289 60.4173C57.7954 61.4231 56.6407 62.3307 55.1687 62.9548C55.1687 63.2471 55.1687 63.5393 55.1687 63.8404C54.534 64.4647 54.534 64.4647 53.6467 65.1963C50.7166 67.6945 47.841 70.2402 45.8707 73.5812C43.3142 73.3682 41.4613 72.6139 39.2292 71.3674C39.8167 69.2227 40.7601 67.6587 42.1348 65.9435C42.3337 65.6914 42.5325 65.4393 42.7374 65.1796C44.5745 62.8726 46.493 60.6633 48.5272 58.5272C48.7749 58.2651 49.0225 58.0031 49.2777 57.7331C53.4273 53.3682 57.7206 49.5278 62.6957 46.1298C62.9785 45.9348 63.2614 45.7398 63.5527 45.5389C70.373 40.8946 77.8045 37.7446 85.7195 35.5034C86.2161 35.3453 86.7127 35.1872 87.2243 35.0243C99.4014 31.2349 113.561 31.1792 126.011 33.7323C126.504 33.8282 126.997 33.9241 127.506 34.0229C128.938 34.33 130.349 34.6901 131.767 35.0606C132.486 35.2337 133.205 35.4066 133.924 35.5795C140.158 37.1272 145.898 39.3868 151.692 42.1449C152.005 42.292 152.318 42.4391 152.64 42.5907C160.253 46.2204 167.244 51.4519 173.387 57.1989C173.708 57.4983 174.029 57.7977 174.36 58.1063C181.687 65.0095 187.882 72.5408 192.426 81.551C192.61 81.91 192.795 82.269 192.984 82.6389C195.449 87.4714 197.522 92.2255 198.844 97.4925C199.064 98.3625 199.302 99.226 199.545 100.09C205.102 120.314 202.237 142.371 192.426 160.806C192.254 161.131 192.082 161.455 191.905 161.789C188.476 168.216 184.692 174.238 180.029 179.845C179.69 180.271 179.351 180.696 179.001 181.135C178.655 181.568 178.309 182 177.953 182.446C177.641 182.838 177.329 183.229 177.007 183.633C176.027 184.734 174.986 185.577 173.83 186.486C173.326 187.036 172.836 187.598 172.363 188.174C170.802 189.999 169.127 191.701 167.188 193.128C166.896 193.128 166.604 193.128 166.303 193.128C166.303 193.42 166.303 193.712 166.303 194.013C165.677 194.579 165.677 194.579 164.793 195.219C164.467 195.455 164.142 195.692 163.806 195.936C163.452 196.187 163.098 196.439 162.733 196.698C162.372 196.956 162.012 197.214 161.64 197.48C158.422 199.755 155.115 201.807 151.692 203.754C151.286 203.993 150.88 204.233 150.462 204.479C145.817 207.14 140.755 208.971 135.752 210.838C135.171 211.068 134.589 211.299 134.009 211.53C132.478 212.105 130.961 212.465 129.361 212.789C128.044 213.094 126.775 213.504 125.485 213.91C118.085 216.021 110.447 216.372 102.792 216.325C101.409 216.318 100.027 216.325 98.6436 216.333C91.09 216.341 83.7044 215.739 76.4664 213.476C75.1756 213.078 73.8924 212.767 72.5749 212.471C62.7268 210.022 53.3862 205.386 44.9851 199.769C44.5885 199.512 44.1918 199.255 43.7831 198.989C40.6886 196.918 37.914 194.469 35.1188 192.018C34.3218 191.325 33.5155 190.643 32.7088 189.961C31.6767 189.077 30.7253 188.192 29.8481 187.151C29.593 186.85 29.3378 186.549 29.075 186.239C28.6221 185.704 28.6221 185.704 28.16 185.158C27.7589 184.7 27.357 184.243 26.9545 183.787C19.3473 175.112 11.3497 164.464 8.19755 153.206C7.84482 152.112 7.42946 151.141 6.94535 150.102C5.94413 147.886 5.29391 145.641 4.69348 143.289C4.58093 142.854 4.46839 142.419 4.35243 141.97C3.13006 137.085 2.32317 132.135 1.59412 127.156C1.5166 126.662 1.43909 126.168 1.35922 125.659C-0.746773 109.424 2.68982 91.5648 9.12113 76.6806C9.27359 76.3199 9.42605 75.9593 9.58314 75.5877C11.7252 70.5376 14.1088 65.7878 17.0909 61.1838C17.2673 60.9083 17.4436 60.6329 17.6253 60.3491C21.0096 55.0806 24.6554 50.075 28.9124 45.4708C29.7479 44.5587 30.5598 43.6341 31.3684 42.6983C36.2998 37.0531 41.6644 32.0673 47.7321 27.6741C49.129 26.6494 50.4715 25.5559 51.8186 24.4671C52.5121 23.9915 51.8186 24.4671 52.9867 23.7296C53.3977 23.106 53.3977 23.407 53.3977 23.106C54.4547 22.4063 55.5076 21.7673 56.6077 21.1412C57.1134 20.8497 57.1134 20.8497 57.6293 20.5524C58.7255 19.9236 59.8249 19.3007 60.9247 18.6783C61.282 18.4738 61.6394 18.2694 62.0076 18.0587C83.116 6.00278 105.748 0.389241 129.996 0.967688Z" fill="#100E10"/>
</svg>
