<svg width="400" height="400" viewBox="0 0 400 400" fill="none" xmlns="http://www.w3.org/2000/svg">
<circle cx="200" cy="200" r="200" fill="black"/>
<path d="M129.926 161.576C175.903 161.576 221.88 161.576 269.25 161.576C268.586 166.884 268.586 166.884 267.951 168.67C267.811 169.074 267.672 169.478 267.527 169.894C267.377 170.315 267.227 170.736 267.073 171.169C265.498 175.715 264.083 180.293 262.759 184.918C262.621 185.39 262.483 185.863 262.341 186.35C262.161 186.977 262.161 186.977 261.978 187.616C261.575 188.733 261.575 188.733 260.394 190.504C258.594 190.717 258.594 190.717 256.25 190.705C255.611 190.705 255.611 190.705 254.958 190.705C253.546 190.704 252.135 190.69 250.723 190.677C249.745 190.673 248.767 190.671 247.789 190.669C245.213 190.662 242.638 190.645 240.062 190.625C237.434 190.607 234.807 190.599 232.179 190.59C227.022 190.571 221.865 190.541 216.708 190.504C216.715 191.064 216.723 191.624 216.73 192.201C216.827 199.531 216.917 206.861 217.003 214.192C217.01 214.786 217.017 215.381 217.024 215.993C217.247 234.985 217.353 253.975 217.335 272.969C217.335 273.53 217.334 274.091 217.334 274.669C217.327 281.445 217.314 288.22 217.298 294.996C205.999 294.996 194.7 294.996 183.058 294.996C183.058 260.708 183.058 226.421 183.058 191.094C168.641 191.094 154.225 191.094 139.372 191.094C138.203 187.003 137.034 182.912 135.83 178.696C134.303 173.972 132.708 169.286 130.987 164.629C130.616 163.618 130.267 162.598 129.926 161.576Z" fill="white"/>
<path d="M237.328 55.9569C237.026 58.4914 236.631 60.6815 235.601 63.0181C235.374 63.5401 235.147 64.0622 234.912 64.6001C234.675 65.1328 234.437 65.6655 234.192 66.2143C233.961 66.7424 233.73 67.2706 233.492 67.8147C232.808 69.3746 232.118 70.9311 231.425 72.4868C231.194 73.0068 230.963 73.5267 230.725 74.0624C230.172 75.3086 229.618 76.5544 229.063 77.8C228.565 77.8024 228.067 77.8049 227.554 77.8074C216.712 77.8993 206.542 78.5352 196.003 81.3421C195.148 81.568 195.148 81.568 194.275 81.7984C179.198 85.8341 164.691 92.0723 151.727 100.824C151.294 101.115 150.862 101.407 150.416 101.707C143.217 106.6 136.542 111.916 130.14 117.82C129.044 118.815 127.944 119.758 126.784 120.674C125.042 122.18 123.595 123.788 122.108 125.54C121.418 126.345 120.711 127.137 119.986 127.911C96.2786 153.312 87.369 186.605 88.4967 220.555C88.7314 225.425 89.6585 230.136 90.9204 234.834C91.0277 235.245 91.1351 235.655 91.2458 236.078C91.9947 238.86 92.9003 241.569 93.8721 244.28C94.0395 244.757 94.207 245.234 94.3795 245.725C96.8467 252.701 99.7122 259.262 103.346 265.707C103.818 266.551 104.268 267.407 104.713 268.265C111.39 281.092 124.469 295.59 137.558 302.134C137.558 302.524 137.558 302.914 137.558 303.315C138.061 303.464 138.564 303.612 139.083 303.765C141.253 304.551 143.067 305.565 145.048 306.747C151.894 310.732 158.948 313.352 166.486 315.713C166.872 315.834 167.259 315.955 167.657 316.08C171.892 317.391 176.071 318.394 180.46 319.022C181.835 319.255 181.835 319.255 183.016 319.845C188.254 320.661 193.555 320.579 198.844 320.583C199.333 320.583 199.822 320.584 200.326 320.584C207.689 320.575 214.768 320.271 221.979 318.664C222.451 318.566 222.924 318.468 223.411 318.367C241.481 314.568 259.426 305.933 273.087 293.454C274.208 292.436 275.361 291.457 276.513 290.475C277.229 289.839 277.943 289.199 278.653 288.556C279.004 288.244 279.355 287.932 279.716 287.611C291.323 276.701 299.201 262.003 304.628 247.232C304.835 246.686 305.042 246.14 305.256 245.578C305.438 245.089 305.621 244.599 305.809 244.095C305.992 243.611 306.174 243.126 306.363 242.626C308.037 237.586 309.132 232.617 309.757 227.344C309.831 226.722 309.905 226.101 309.981 225.46C312.529 202.799 306.394 178.693 292.784 160.228C292.211 159.511 291.633 158.798 291.05 158.088C290.708 157.645 290.365 157.202 290.013 156.746C277.76 141.021 262.533 130.113 244.412 122.077C243.902 121.841 243.391 121.606 242.865 121.364C219.894 111.371 191.46 111.829 168.291 120.606C163.803 122.376 159.521 124.528 155.269 126.799C154.649 127.127 154.03 127.454 153.392 127.791C149.534 129.929 146.112 132.439 142.705 135.223C141.061 136.564 139.521 137.774 137.558 138.606C137.558 138.996 137.558 139.386 137.558 139.787C136.712 140.62 136.712 140.62 135.529 141.595C131.622 144.926 127.788 148.32 125.161 152.775C121.752 152.491 119.282 151.485 116.306 149.823C117.089 146.964 118.347 144.878 120.18 142.591C120.445 142.255 120.71 141.919 120.983 141.573C123.433 138.497 125.991 135.551 128.703 132.703C129.033 132.354 129.363 132.004 129.704 131.644C135.236 125.824 140.961 120.704 147.594 116.173C147.971 115.913 148.348 115.653 148.737 115.385C157.831 109.193 167.739 104.993 178.293 102.005C178.955 101.794 179.617 101.583 180.299 101.366C196.535 96.3132 215.415 96.2389 232.015 99.6431C232.672 99.7709 233.33 99.8988 234.007 100.031C235.918 100.44 237.799 100.92 239.69 101.414C240.648 101.645 241.607 101.876 242.565 102.106C250.877 104.17 258.53 107.182 266.255 110.86C266.673 111.056 267.09 111.252 267.52 111.454C277.671 116.294 286.992 123.269 295.183 130.932C295.611 131.331 296.039 131.73 296.481 132.142C306.25 141.346 314.51 151.388 320.568 163.401C320.814 163.88 321.059 164.359 321.313 164.852C324.598 171.295 327.363 177.634 329.125 184.657C329.419 185.817 329.736 186.968 330.06 188.12C337.469 215.085 333.649 244.495 320.568 269.075C320.339 269.507 320.109 269.94 319.873 270.386C315.302 278.955 310.256 286.984 304.038 294.46C303.586 295.028 303.134 295.595 302.668 296.18C302.207 296.757 301.746 297.334 301.271 297.928C300.855 298.45 300.438 298.972 300.009 299.51C298.703 300.978 297.314 302.102 295.773 303.315C295.101 304.047 294.448 304.798 293.818 305.566C291.736 307.999 289.503 310.269 286.918 312.17C286.528 312.17 286.139 312.17 285.737 312.17C285.737 312.56 285.737 312.95 285.737 313.351C284.902 314.105 284.902 314.105 283.724 314.959C283.29 315.274 282.856 315.589 282.408 315.914C281.936 316.249 281.464 316.585 280.977 316.93C280.496 317.274 280.015 317.618 279.52 317.973C275.23 321.006 270.82 323.742 266.255 326.339C265.714 326.658 265.173 326.977 264.616 327.305C258.422 330.854 251.674 333.295 245.003 335.785C244.228 336.091 243.453 336.399 242.678 336.707C240.637 337.473 238.615 337.953 236.482 338.386C234.725 338.792 233.034 339.339 231.314 339.88C221.447 342.695 211.263 343.162 201.056 343.1C199.212 343.09 197.369 343.1 195.525 343.111C185.453 343.121 175.606 342.319 165.955 339.301C164.234 338.77 162.523 338.356 160.767 337.962C147.636 334.696 135.182 328.514 123.98 321.026C123.451 320.683 122.922 320.339 122.377 319.986C118.252 317.224 114.552 313.958 110.825 310.691C109.762 309.766 108.687 308.857 107.612 307.948C106.236 306.769 104.967 305.59 103.797 304.201C103.457 303.8 103.117 303.399 102.767 302.985C102.163 302.272 102.163 302.272 101.547 301.544C101.012 300.934 100.476 300.324 99.9394 299.715C89.7964 288.15 79.1329 273.952 74.9301 258.942C74.4598 257.483 73.9059 256.188 73.2605 254.802C71.9255 251.848 71.0586 248.855 70.258 245.719C70.1079 245.139 69.9578 244.558 69.8032 243.96C68.1734 237.447 67.0976 230.847 66.1255 224.208C66.0221 223.549 65.9188 222.89 65.8123 222.212C63.0043 200.566 67.5864 176.753 76.1615 156.907C76.3648 156.427 76.5681 155.946 76.7775 155.45C79.6336 148.717 82.8118 142.384 86.7879 136.245C87.023 135.878 87.2582 135.51 87.5005 135.132C92.0128 128.108 96.8738 121.433 102.55 115.294C103.664 114.078 104.746 112.845 105.824 111.598C112.4 104.071 119.553 97.4231 127.643 91.5655C129.505 90.1992 131.295 88.7412 133.091 87.2895C134.016 86.6553 133.091 87.2895 134.649 86.3061C135.197 85.4746 135.197 85.876 135.197 85.4746C136.606 84.5417 138.01 83.6897 139.477 82.8549C140.151 82.4663 140.151 82.4663 140.839 82.0698C142.301 81.2314 143.767 80.401 145.233 79.5711C145.709 79.2984 146.186 79.0258 146.677 78.7449C174.821 62.6704 204.997 55.1856 237.328 55.9569Z" fill="#E5E3E5"/>
</svg>
