<svg width="202" height="216" viewBox="0 0 202 216" fill="none" xmlns="http://www.w3.org/2000/svg">
<path d="M48.7042 79.255C83.1867 79.255 117.669 79.255 153.197 79.255C152.699 83.2358 152.699 83.2358 152.223 84.5751C152.118 84.8781 152.013 85.1812 151.905 85.4934C151.793 85.809 151.68 86.1247 151.564 86.4499C150.383 89.8594 149.322 93.2923 148.329 96.7611C148.225 97.1157 148.122 97.4702 148.015 97.8356C147.88 98.3055 147.88 98.3055 147.743 98.785C147.441 99.6222 147.441 99.6222 146.555 100.95C145.205 101.11 145.205 101.11 143.447 101.101C142.968 101.102 142.968 101.102 142.478 101.102C141.419 101.101 140.361 101.091 139.302 101.08C138.568 101.078 137.835 101.076 137.102 101.075C135.17 101.069 133.238 101.056 131.306 101.042C129.335 101.028 127.365 101.022 125.394 101.015C121.526 101.001 117.659 100.978 113.791 100.95C113.796 101.371 113.802 101.791 113.807 102.224C113.88 107.721 113.947 113.219 114.012 118.716C114.017 119.162 114.023 119.608 114.028 120.068C114.195 134.312 114.274 148.554 114.261 162.799C114.261 163.22 114.26 163.641 114.26 164.075C114.255 169.156 114.245 174.238 114.233 179.32C105.759 179.32 97.2844 179.32 88.553 179.32C88.553 153.604 88.553 127.888 88.553 101.393C77.7407 101.393 66.9284 101.393 55.7884 101.393C54.9117 98.3249 54.0351 95.2565 53.1318 92.0952C51.9869 88.5515 50.791 85.0375 49.4998 81.5449C49.2214 80.7863 48.9597 80.0216 48.7042 79.255Z" fill="white"/>
<path d="M129.256 0.0405028C129.03 1.94136 128.733 3.58392 127.96 5.33639C127.79 5.72793 127.62 6.11946 127.444 6.52286C127.266 6.92239 127.087 7.32192 126.904 7.73355C126.73 8.12965 126.557 8.52575 126.379 8.93386C125.866 10.1038 125.348 11.2712 124.828 12.4379C124.655 12.8279 124.482 13.2179 124.303 13.6196C123.888 14.5542 123.473 15.4886 123.057 16.4228C122.683 16.4246 122.31 16.4265 121.925 16.4283C113.794 16.4973 106.166 16.9742 98.2622 19.0794C97.6204 19.2488 97.6204 19.2488 96.9656 19.4216C85.6582 22.4484 74.7776 27.127 65.0548 33.6907C64.7303 33.9093 64.4058 34.128 64.0715 34.3533C58.6724 38.023 53.6663 42.0102 48.8644 46.4375C48.0426 47.1841 47.2179 47.891 46.3479 48.5787C45.0409 49.7075 43.9559 50.9136 42.8404 52.228C42.3228 52.8319 41.7932 53.4258 41.2492 54.006C23.4686 73.0567 16.7864 98.0268 17.6322 123.489C17.8082 127.141 18.5036 130.675 19.4499 134.198C19.5305 134.506 19.611 134.814 19.694 135.131C20.2557 137.218 20.9348 139.249 21.6637 141.283C21.7893 141.64 21.9149 141.998 22.0443 142.367C23.8947 147.598 26.0438 152.519 28.7694 157.353C29.123 157.986 29.4606 158.628 29.7944 159.272C34.8023 168.892 44.6117 179.765 54.4284 184.674C54.4284 184.966 54.4284 185.258 54.4284 185.559C54.8057 185.67 55.1829 185.782 55.5716 185.896C57.1991 186.486 58.5601 187.247 60.046 188.133C65.1798 191.122 70.4709 193.087 76.1239 194.857C76.4139 194.948 76.7039 195.039 77.0027 195.133C80.1788 196.116 83.3127 196.868 86.605 197.339C87.6358 197.514 87.6358 197.514 88.5213 197.957C92.4505 198.569 96.4259 198.507 100.393 198.51C100.76 198.51 101.126 198.511 101.504 198.511C107.027 198.504 112.336 198.276 117.744 197.071C118.098 196.997 118.453 196.924 118.818 196.848C132.37 193.999 145.829 187.522 156.075 178.164C156.916 177.4 157.78 176.666 158.644 175.929C159.181 175.452 159.717 174.972 160.249 174.49C160.512 174.256 160.776 174.022 161.047 173.781C169.752 165.599 175.66 154.575 179.731 143.496C179.886 143.087 180.041 142.678 180.201 142.256C180.338 141.889 180.475 141.522 180.617 141.144C180.754 140.781 180.89 140.417 181.032 140.043C182.287 136.262 183.109 132.536 183.578 128.581C183.633 128.115 183.688 127.648 183.745 127.168C185.657 110.172 181.055 92.0927 170.848 78.2439C170.418 77.706 169.984 77.1711 169.547 76.6389C169.291 76.3067 169.034 75.9746 168.769 75.6323C159.58 63.8388 148.16 55.6578 134.569 49.6302C134.186 49.4539 133.803 49.2775 133.408 49.0958C116.18 41.6013 94.8549 41.9449 77.4779 48.5274C74.1119 49.8547 70.9005 51.4691 67.7113 53.1723C67.2468 53.4178 66.7822 53.6632 66.3035 53.9161C63.4104 55.5199 60.8433 57.402 58.2885 59.4901C57.0551 60.4959 55.9004 61.4035 54.4284 62.0277C54.4284 62.3199 54.4284 62.6121 54.4284 62.9132C53.7936 63.5376 53.7936 63.5376 52.9064 64.2691C49.9763 66.7673 47.1007 69.313 45.1303 72.654C42.5739 72.441 40.721 71.6867 38.4888 70.4402C39.0764 68.2955 40.0198 66.7315 41.3945 65.0163C41.5933 64.7642 41.7922 64.5121 41.997 64.2524C43.8342 61.9454 45.7527 59.7361 47.7869 57.6C48.0345 57.338 48.2822 57.0759 48.5373 56.8059C52.687 52.441 56.9803 48.6006 61.9554 45.2026C62.2382 45.0076 62.521 44.8126 62.8124 44.6117C69.6326 39.9674 77.0642 36.8174 84.9792 34.5762C85.4758 34.4181 85.9723 34.26 86.4839 34.0971C98.6611 30.3077 112.821 30.252 125.271 32.8051C125.764 32.901 126.257 32.9969 126.765 33.0957C128.198 33.4028 129.609 33.7629 131.027 34.1334C131.746 34.3065 132.465 34.4795 133.184 34.6523C139.417 36.2001 145.157 38.4596 150.951 41.2177C151.264 41.3648 151.577 41.5119 151.9 41.6635C159.513 45.2932 166.504 50.5247 172.647 56.2717C172.968 56.5711 173.289 56.8706 173.62 57.1791C180.947 64.0823 187.142 71.6136 191.686 80.6238C191.87 80.9828 192.054 81.3418 192.244 81.7117C194.708 86.5442 196.782 91.2983 198.103 96.5653C198.324 97.4353 198.562 98.2988 198.804 99.1629C204.361 119.387 201.497 141.444 191.686 159.879C191.514 160.203 191.342 160.528 191.164 160.862C187.736 167.289 183.952 173.311 179.288 178.918C178.949 179.343 178.61 179.769 178.261 180.208C177.915 180.641 177.569 181.073 177.213 181.519C176.901 181.91 176.588 182.302 176.267 182.705C175.287 183.807 174.245 184.65 173.09 185.559C172.586 186.108 172.096 186.671 171.623 187.247C170.062 189.072 168.387 190.774 166.448 192.201C166.156 192.201 165.864 192.201 165.562 192.201C165.562 192.493 165.562 192.785 165.562 193.086C164.936 193.652 164.936 193.652 164.053 194.292C163.727 194.528 163.401 194.765 163.066 195.008C162.712 195.26 162.358 195.511 161.993 195.77C161.632 196.028 161.271 196.286 160.9 196.552C157.682 198.828 154.375 200.879 150.951 202.827C150.545 203.066 150.14 203.305 149.722 203.552C145.076 206.213 140.015 208.044 135.012 209.911C134.43 210.141 133.849 210.372 133.268 210.603C131.738 211.177 130.221 211.537 128.621 211.862C127.303 212.167 126.035 212.577 124.745 212.983C117.345 215.094 109.707 215.444 102.052 215.398C100.669 215.391 99.2863 215.398 97.9033 215.406C90.3496 215.414 82.9641 214.812 75.7261 212.549C74.4352 212.151 73.1521 211.84 71.8346 211.544C61.9864 209.095 52.6459 204.459 44.2448 198.842C43.8481 198.585 43.4514 198.327 43.0427 198.062C39.9483 195.991 37.1736 193.542 34.3784 191.091C33.5815 190.397 32.7752 189.716 31.9684 189.034C30.9364 188.15 29.9849 187.265 29.1077 186.223C28.8526 185.923 28.5975 185.622 28.3346 185.312C27.8817 184.777 27.8817 184.777 27.4197 184.231C27.0185 183.773 26.6166 183.316 26.2142 182.859C18.607 174.185 10.6094 163.537 7.45721 152.279C7.10448 151.185 6.68912 150.214 6.20501 149.175C5.20379 146.959 4.55357 144.714 3.95313 142.362C3.84059 141.927 3.72804 141.492 3.61209 141.043C2.38972 136.158 1.58283 131.208 0.853777 126.229C0.776262 125.735 0.698747 125.241 0.618882 124.732C-1.48711 108.497 1.94948 90.6376 8.38079 75.7534C8.53325 75.3927 8.68571 75.0321 8.8428 74.6605C10.9848 69.6104 13.3685 64.8606 16.3506 60.2566C16.5269 59.9811 16.7033 59.7057 16.885 59.4219C20.2692 54.1535 23.915 49.1478 28.1721 44.5436C29.0076 43.6315 29.8195 42.7069 30.628 41.7711C35.5594 36.1259 40.9241 31.1402 46.9917 26.747C48.3887 25.7222 49.7311 24.6287 51.0782 23.5399C51.7718 23.0643 51.0782 23.5399 52.2463 22.8024C52.6573 22.1788 52.6573 22.4799 52.6573 22.1788C53.7144 21.4791 54.7673 20.8401 55.8674 20.214C56.3731 19.9225 56.3731 19.9225 56.889 19.6252C57.9851 18.9964 59.0846 18.3736 60.1843 17.7511C60.5417 17.5466 60.8991 17.3422 61.2673 17.1315C82.3757 5.07559 105.008 -0.537944 129.256 0.0405028Z" fill="#E5E3E5"/>
</svg>
